<?xml version="1.0"?>
<svg xmlns="http://www.w3.org/2000/svg" viewBox="0 0 24 24" enable-background="new 0 0 24 24">
    <path d="M 4 0 L 4 7 L 1 7 C 0.448 7 0 7.448 0 8 L 0 19 C 0 19.552 0.448 20 1 20 L 4 20 L 4 24 L 20 24 L 20 20 L 23 20 C 23.552 20 24 19.552 24 19 L 24 8 C 24 7.448 23.552 7 23 7 L 20 7 L 20 0 L 4 0 z M 6 2 L 18 2 L 18 7 L 6 7 L 6 2 z M 21 9 C 21.552 9 22 9.448 22 10 C 22 10.552 21.552 11 21 11 C 20.448 11 20 10.552 20 10 C 20 9.448 20.448 9 21 9 z M 6 15 L 18 15 L 18 22 L 6 22 L 6 15 z M 8 17 L 8 18 L 16 18 L 16 17 L 8 17 z M 8 19 L 8 20 L 13 20 L 13 19 L 8 19 z"/>
</svg>
